<?xml version="1.0" encoding="utf-8"?>
<!-- Generator: Adobe Illustrator 26.3.1, SVG Export Plug-In . SVG Version: 6.00 Build 0)  -->
<svg version="1.1" id="Layer_1" xmlns="http://www.w3.org/2000/svg" xmlns:xlink="http://www.w3.org/1999/xlink" x="0px" y="0px"
	 viewBox="0 0 765 765" style="enable-background:new 0 0 765 765;" xml:space="preserve">
<style type="text/css">
	.st0{fill:none;stroke:#FFFFFF;stroke-width:16;stroke-miterlimit:10;}
	.st1{fill:#FFFFFF;}
</style>
<circle cx="383.7" cy="379.8" r="373.9"/>
<circle class="st0" cx="383.7" cy="379.8" r="321.8"/>
<g>
	<g>
		<path d="M1831.3,716h-743.6c-29.8,0-54-24.2-54-54l0,0c0-29.8,24.2-54,54-54h743.6c29.8,0,54,24.2,54,54l0,0
			C1885.3,691.9,1861.1,716,1831.3,716z"/>
		<g>
			<path class="st1" d="M1117.7,692.9h-13V630h13V692.9z"/>
			<path class="st1" d="M1179.1,649c3,2.5,4.5,6.7,4.5,12.5v31.3h-12.4v-28.3c0-2.4-0.3-4.3-1-5.6c-1.2-2.4-3.4-3.6-6.7-3.6
				c-4.1,0-6.8,1.7-8.4,5.2c-0.8,1.8-1.2,4.2-1.2,7.1v25.2h-12.1v-46.4h11.7v6.8c1.5-2.4,3-4.1,4.4-5.2c2.5-1.9,5.6-2.8,9.4-2.8
				C1172.2,645.3,1176.1,646.5,1179.1,649z"/>
			<path class="st1" d="M1203.2,655.5v-8.7h6.4v-13h11.9v13h7.5v8.7h-7.5V680c0,1.9,0.2,3.1,0.7,3.6s1.9,0.7,4.4,0.7
				c0.4,0,0.8,0,1.2,0c0.4,0,0.8,0,1.2-0.1v9.1l-5.7,0.2c-5.7,0.2-9.6-0.8-11.7-3c-1.4-1.4-2-3.5-2-6.4v-28.6H1203.2L1203.2,655.5z"
				/>
			<path class="st1" d="M1279.8,647.3c3.2,1.5,5.9,3.7,8,6.9c1.9,2.8,3.1,6,3.7,9.6c0.3,2.1,0.5,5.2,0.4,9.2h-33.6
				c0.2,4.7,1.8,7.9,4.8,9.8c1.8,1.2,4.1,1.7,6.7,1.7c2.7,0,5-0.7,6.7-2.1c0.9-0.8,1.8-1.8,2.5-3.2h12.3c-0.3,2.8-1.8,5.6-4.5,8.4
				c-4.1,4.5-9.9,6.8-17.4,6.8c-6.1,0-11.6-1.9-16.2-5.7c-4.6-3.8-7-10-7-18.6c0-8.1,2.1-14.2,6.4-18.5c4.2-4.3,9.7-6.4,16.5-6.4
				C1273,645.1,1276.6,645.9,1279.8,647.3z M1261.8,657.8c-1.7,1.8-2.8,4.2-3.2,7.2h20.8c-0.2-3.2-1.3-5.7-3.2-7.3
				c-1.9-1.7-4.3-2.5-7.2-2.5C1265.9,655.2,1263.5,656,1261.8,657.8z"/>
			<path class="st1" d="M1336.6,645.3c0.2,0,0.5,0,1,0.1v12.5c-0.8-0.1-1.4-0.1-2-0.2c-0.6,0-1.1,0-1.4,0c-4.9,0-8.1,1.6-9.8,4.8
				c-0.9,1.8-1.4,4.6-1.4,8.3V693h-12.1v-46.5h11.5v8.1c1.9-3.1,3.5-5.2,4.9-6.4c2.3-1.9,5.2-2.9,8.8-2.9
				C1336.2,645.3,1336.4,645.3,1336.6,645.3z"/>
			<path class="st1" d="M1394.9,649c3,2.5,4.5,6.7,4.5,12.5v31.3H1387v-28.3c0-2.4-0.3-4.3-1-5.6c-1.2-2.4-3.4-3.6-6.7-3.6
				c-4.1,0-6.8,1.7-8.4,5.2c-0.8,1.8-1.2,4.2-1.2,7.1v25.2h-12.1v-46.4h11.9v6.8c1.5-2.4,3-4.1,4.4-5.2c2.5-1.9,5.6-2.8,9.4-2.8
				C1388,645.3,1391.9,646.5,1394.9,649z"/>
			<path class="st1" d="M1441.9,664.6c2.2-0.3,3.9-0.6,4.8-1.1c1.7-0.7,2.6-1.9,2.6-3.5c0-1.9-0.7-3.2-2-3.9
				c-1.3-0.7-3.3-1.1-5.9-1.1c-2.9,0-4.9,0.7-6.1,2.1c-0.9,1.1-1.4,2.5-1.7,4.3H1422c0.3-4.1,1.4-7.4,3.4-10
				c3.2-4.1,8.7-6.1,16.5-6.1c5.1,0,9.6,1,13.5,3c3.9,2,5.9,5.8,5.9,11.4V681c0,1.5,0,3.3,0.1,5.4c0.1,1.6,0.3,2.7,0.7,3.2
				c0.4,0.6,1,1,1.8,1.4v1.8h-13.1c-0.4-0.9-0.6-1.8-0.8-2.6c-0.1-0.8-0.3-1.8-0.3-2.8c-1.7,1.8-3.6,3.4-5.8,4.7
				c-2.6,1.5-5.6,2.3-8.9,2.3c-4.2,0-7.7-1.2-10.4-3.6c-2.7-2.4-4.1-5.8-4.1-10.2c0-5.7,2.2-9.9,6.6-12.4c2.4-1.4,6-2.4,10.7-3
				L1441.9,664.6z M1449.3,670.3c-0.8,0.5-1.6,0.9-2.3,1.2c-0.8,0.3-1.9,0.6-3.2,0.8l-2.7,0.5c-2.6,0.5-4.4,1-5.5,1.7
				c-1.9,1.1-2.8,2.8-2.8,5.2c0,2.1,0.6,3.6,1.7,4.5c1.2,0.9,2.6,1.4,4.2,1.4c2.6,0,5.1-0.8,7.3-2.3s3.4-4.3,3.5-8.4v-4.6H1449.3z"
				/>
			<path class="st1" d="M1512.4,663.1c-0.2-1.7-0.8-3.3-1.7-4.7c-1.4-1.9-3.5-2.8-6.3-2.8c-4.1,0-6.9,2-8.4,6.1
				c-0.8,2.2-1.2,5-1.2,8.6c0,3.4,0.4,6.1,1.2,8.2c1.4,3.9,4.2,5.8,8.1,5.8c2.8,0,4.8-0.8,6-2.3s1.9-3.5,2.2-6h12.3
				c-0.3,3.7-1.6,7.2-4,10.5c-3.8,5.3-9.4,8-16.8,8c-7.4,0-12.9-2.2-16.4-6.7c-3.5-4.5-5.3-10.2-5.3-17.3c0-8,1.9-14.2,5.8-18.6
				s9.2-6.7,16-6.7c5.8,0,10.5,1.3,14.2,3.9c3.7,2.6,5.9,7.2,6.5,13.9L1512.4,663.1L1512.4,663.1z"/>
			<path class="st1" d="M1558.5,640.8h-12.2v-11.2h12.2V640.8z M1546.2,646.4h12.3v46.5h-12.2v-46.5H1546.2z"/>
			<path class="st1" d="M1621.6,687.2c-3.9,4.8-9.8,7.3-17.7,7.3c-7.9,0-13.8-2.4-17.7-7.3c-3.9-4.8-5.8-10.7-5.8-17.5
				c0-6.7,1.9-12.5,5.8-17.4c3.9-4.9,9.8-7.4,17.7-7.4c7.9,0,13.8,2.5,17.7,7.4c3.9,4.9,5.8,10.7,5.8,17.4
				C1627.4,676.5,1625.5,682.4,1621.6,687.2z M1612,680.5c1.9-2.5,2.8-6.1,2.8-10.8s-0.9-8.2-2.8-10.8c-1.9-2.5-4.6-3.8-8.1-3.8
				s-6.2,1.3-8.1,3.8s-2.9,6.1-2.9,10.8s1,8.3,2.9,10.8s4.6,3.8,8.1,3.8S1610.1,683,1612,680.5z"/>
			<path class="st1" d="M1686.3,649c3,2.5,4.5,6.7,4.5,12.5v31.3h-12.3v-28.3c0-2.4-0.3-4.3-1-5.6c-1.2-2.4-3.4-3.6-6.7-3.6
				c-4.1,0-6.8,1.7-8.4,5.2c-0.8,1.8-1.2,4.2-1.2,7.1v25.2h-12.1v-46.4h11.7v6.8c1.5-2.4,3-4.1,4.4-5.2c2.5-1.9,5.6-2.8,9.4-2.8
				C1679.4,645.3,1683.3,646.5,1686.3,649z"/>
			<path class="st1" d="M1733.3,664.6c2.2-0.3,3.9-0.6,4.8-1.1c1.7-0.7,2.6-1.9,2.6-3.5c0-1.9-0.7-3.2-2-3.9
				c-1.3-0.7-3.3-1.1-5.9-1.1c-2.9,0-4.9,0.7-6.1,2.1c-0.9,1.1-1.4,2.5-1.7,4.3h-11.6c0.3-4.1,1.4-7.4,3.4-10
				c3.2-4.1,8.7-6.1,16.5-6.1c5.1,0,9.6,1,13.5,3c3.9,2,5.9,5.8,5.9,11.4V681c0,1.5,0,3.3,0.1,5.4c0.1,1.6,0.3,2.7,0.7,3.2
				c0.4,0.6,1,1,1.8,1.4v1.8h-13.1c-0.4-0.9-0.6-1.8-0.8-2.6c-0.1-0.8-0.3-1.8-0.3-2.8c-1.7,1.8-3.6,3.4-5.8,4.7
				c-2.6,1.5-5.6,2.3-8.9,2.3c-4.2,0-7.7-1.2-10.4-3.6c-2.7-2.4-4.1-5.8-4.1-10.2c0-5.7,2.2-9.9,6.6-12.4c2.4-1.4,6-2.4,10.7-3
				L1733.3,664.6z M1740.7,670.3c-0.8,0.5-1.6,0.9-2.3,1.2c-0.8,0.3-1.9,0.6-3.2,0.8l-2.7,0.5c-2.6,0.5-4.4,1-5.5,1.7
				c-1.9,1.1-2.8,2.8-2.8,5.2c0,2.1,0.6,3.6,1.7,4.5c1.2,0.9,2.6,1.4,4.2,1.4c2.6,0,5.1-0.8,7.3-2.3s3.4-4.3,3.5-8.4v-4.6H1740.7z"
				/>
			<path class="st1" d="M1788.5,692.9h-12V630h12V692.9z"/>
		</g>
	</g>
	<g>
		<path d="M1224,414c5.1,7.1,7.7,15.7,7.7,25.7c0,10.3-2.6,18.5-7.7,24.8c-2.9,3.5-7.1,6.7-12.7,9.6c8.5,3.1,14.9,8.1,19.3,14.8
			c4.3,6.8,6.5,15,6.5,24.6c0,10-2.5,18.9-7.4,26.8c-3.1,5.2-7.1,9.7-11.8,13.2c-5.3,4.1-11.6,6.9-18.8,8.4
			c-7.2,1.5-15.1,2.3-23.6,2.3h-75.1V396h80.6C1201.2,396.4,1215.6,402.3,1224,414z M1133.5,425.2v37.1h40.5
			c7.2,0,13.1-1.4,17.6-4.2c4.5-2.8,6.8-7.7,6.8-14.8c0-7.8-3-13-9-15.5c-5.2-1.7-11.7-2.6-19.7-2.6
			C1169.7,425.2,1133.5,425.2,1133.5,425.2z M1133.5,490.1V535h40.5c7.2,0,12.9-1,16.9-3c7.3-3.6,11-10.6,11-21
			c0-8.7-3.5-14.8-10.6-18c-4-1.8-9.5-2.8-16.7-2.9H1133.5z"/>
		<path d="M1309.1,425h-32.7v-30h32.7V425z M1276.4,439.8h32.7v124.3h-32.7V439.8z"/>
		<path d="M1432.2,442.4c8.6,3.9,15.7,10,21.3,18.4c5,7.4,8.3,16,9.8,25.7c0.9,5.7,1.2,13.9,1.1,24.7h-89.8
			c0.5,12.5,4.8,21.2,12.9,26.2c4.9,3.1,10.8,4.7,17.8,4.7c7.3,0,13.3-1.9,17.9-5.7c2.5-2.1,4.7-4.9,6.6-8.6h32.9
			c-0.9,7.4-4.9,14.9-12,22.5c-11,12.1-26.5,18.1-46.4,18.1c-16.4,0-30.9-5.1-43.4-15.3c-12.5-10.2-18.8-26.8-18.8-49.8
			c0-21.5,5.7-38,17-49.5s26-17.2,44.1-17.2C1414,436.5,1423.6,438.5,1432.2,442.4z M1384,470.4c-4.6,4.7-7.4,11.1-8.6,19.2h55.5
			c-0.6-8.6-3.4-15.2-8.6-19.6c-5.1-4.5-11.5-6.7-19.1-6.7C1395,463.3,1388.6,465.7,1384,470.4z"/>
		<path d="M1591.7,447c8.1,6.7,12.1,17.9,12.1,33.5v83.7h-33v-75.6c0-6.5-0.9-11.6-2.6-15.1c-3.1-6.4-9.1-9.6-18-9.6
			c-10.9,0-18.3,4.7-22.3,14c-2.1,4.9-3.1,11.3-3.1,18.9v67.3h-32.2v-124h31.2v18.1c4.1-6.4,8-11,11.7-13.8c6.6-5,15-7.5,25.1-7.5
			C1573.3,436.9,1583.7,440.2,1591.7,447z"/>
		<path d="M1694.3,488.5c6-0.8,10.3-1.7,12.9-2.9c4.6-2,7-5.1,7-9.2c0-5.1-1.8-8.6-5.3-10.6c-3.6-1.9-8.8-2.9-15.7-2.9
			c-7.7,0-13.2,1.9-16.4,5.7c-2.3,2.8-3.8,6.6-4.6,11.4h-31.1c0.7-10.9,3.7-19.8,9.1-26.8c8.6-10.9,23.3-16.4,44.1-16.4
			c13.6,0,25.6,2.7,36.1,8.1c10.5,5.4,15.8,15.6,15.8,30.6v57c0,4,0.1,8.7,0.2,14.4c0.2,4.3,0.9,7.1,1.9,8.7
			c1.1,1.5,2.6,2.8,4.8,3.8v4.8H1718c-1-2.5-1.7-4.9-2-7.1c-0.4-2.2-0.7-4.7-0.9-7.5c-4.5,4.9-9.6,9-15.5,12.4c-7,4-14.9,6-23.7,6
			c-11.2,0-20.5-3.2-27.8-9.6c-7.3-6.4-11-15.5-11-27.3c0-15.3,5.9-26.3,17.7-33.2c6.5-3.7,16-6.4,28.5-8L1694.3,488.5z M1714,503.7
			c-2.1,1.3-4.1,2.3-6.3,3.1c-2.1,0.8-5,1.5-8.7,2.2l-7.3,1.4c-6.9,1.2-11.8,2.7-14.8,4.4c-5.1,3-7.6,7.6-7.6,13.8
			c0,5.6,1.5,9.6,4.7,12c3.1,2.5,6.9,3.7,11.3,3.7c7,0,13.5-2.1,19.5-6.2c5.9-4.1,9-11.6,9.2-22.5V503.7L1714,503.7z"/>
		<path d="M1818.8,564.2h-32.3V396h32.2v168.2H1818.8z"/>
	</g>
	<g>
		<path d="M1155.1,776.7c3.1,1.8,5.7,4.3,7.6,7.4v-32h17.6v90.6h-16.9v-9.3c-2.5,4-5.3,6.9-8.5,8.7s-7.1,2.7-11.8,2.7
			c-7.8,0-14.3-3.2-19.6-9.5s-8-14.5-8-24.4c0-11.5,2.6-20.5,7.8-27c5.2-6.6,12.2-9.9,21-9.9C1148.4,774,1151.9,774.9,1155.1,776.7z
			 M1159.3,824.5c2.6-3.7,3.8-8.5,3.8-14.3c0-8.2-2.1-14.1-6.2-17.6c-2.5-2.1-5.5-3.2-8.8-3.2c-5.1,0-8.8,1.9-11.2,5.8
			c-2.4,3.9-3.6,8.7-3.6,14.4c0,6.2,1.2,11.2,3.6,14.9s6.1,5.6,11,5.6C1153,830,1156.8,828.2,1159.3,824.5z"/>
		<path d="M1259.4,777c4.6,2.1,8.5,5.4,11.5,9.9c2.7,4,4.5,8.6,5.3,13.9c0.5,3.1,0.7,7.5,0.6,13.3h-48.5c0.3,6.7,2.6,11.5,7,14.2
			c2.7,1.7,5.9,2.5,9.6,2.5c4,0,7.2-1,9.7-3.1c1.4-1.1,2.5-2.6,3.6-4.6h17.8c-0.5,4-2.6,8-6.5,12.1c-6,6.5-14.3,9.8-25,9.8
			c-8.9,0-16.7-2.8-23.4-8.3c-6.7-5.5-10.2-14.5-10.2-26.9c0-11.6,3.1-20.5,9.2-26.7c6.1-6.2,14-9.3,23.8-9.3
			C1249.6,773.8,1254.8,774.9,1259.4,777z M1233.4,792.1c-2.5,2.6-4,6-4.6,10.4h30c-0.3-4.7-1.9-8.2-4.6-10.6
			c-2.8-2.4-6.2-3.6-10.3-3.6C1239.3,788.3,1235.8,789.6,1233.4,792.1z"/>
		<path d="M1414.2,753.9c6.3,2.1,11.4,5.9,15.3,11.5c3.1,4.5,5.3,9.4,6.4,14.7c1.1,5.3,1.7,10.3,1.7,15c0,12.1-2.4,22.3-7.2,30.7
			c-6.5,11.3-16.6,16.9-30.2,16.9h-38.7V752h38.8C1405.9,752,1410.5,752.7,1414.2,753.9z M1379.8,767.7V827h17.4
			c8.9,0,15.1-4.4,18.6-13.2c1.9-4.8,2.9-10.6,2.9-17.3c0-9.2-1.4-16.3-4.3-21.3c-2.9-4.9-8.6-7.4-17.2-7.4h-17.4V767.7z"/>
		<path d="M1496.7,801.9c3.2-0.4,5.6-0.9,7-1.5c2.5-1.1,3.8-2.7,3.8-5c0-2.7-1-4.6-2.9-5.7c-1.9-1-4.7-1.6-8.4-1.6
			c-4.2,0-7.1,1-8.9,3.1c-1.2,1.5-2.1,3.6-2.5,6.2H1468c0.4-5.9,2-10.7,4.9-14.5c4.6-5.9,12.6-8.9,23.8-8.9c7.3,0,13.8,1.5,19.5,4.4
			c5.7,2.9,8.5,8.4,8.5,16.5v30.8c0,2.1,0,4.7,0.1,7.8c0.1,2.3,0.5,3.9,1,4.7c0.6,0.8,1.4,1.5,2.6,2v2.6h-18.9
			c-0.5-1.4-0.9-2.6-1.1-3.8s-0.4-2.5-0.5-4.1c-2.4,2.6-5.2,4.9-8.4,6.7c-3.8,2.2-8,3.3-12.8,3.3c-6.1,0-11.1-1.7-15-5.2
			c-4-3.5-5.9-8.4-5.9-14.7c0-8.3,3.2-14.2,9.5-17.9c3.5-2,8.6-3.4,15.4-4.3L1496.7,801.9z M1507.3,810.1c-1.1,0.7-2.2,1.3-3.4,1.7
			c-1.1,0.4-2.7,0.8-4.7,1.2l-4,0.7c-3.7,0.7-6.4,1.5-8,2.4c-2.7,1.6-4.1,4.1-4.1,7.4c0,3,0.8,5.2,2.5,6.5c1.7,1.3,3.7,2,6.1,2
			c3.8,0,7.3-1.1,10.5-3.3s4.9-6.3,5-12.1v-6.5H1507.3z"/>
		<path d="M1613.4,779.5c4.4,3.6,6.5,9.7,6.5,18.1v45.2h-17.8V802c0-3.5-0.5-6.2-1.4-8.1c-1.7-3.4-4.9-5.2-9.7-5.2
			c-5.9,0-9.9,2.5-12.1,7.6c-1.1,2.7-1.7,6.1-1.7,10.2v36.3h-17.4v-67h16.9v9.8c2.2-3.4,4.3-5.9,6.3-7.4c3.6-2.7,8.1-4.1,13.6-4.1
			C1603.4,774,1609,775.8,1613.4,779.5z"/>
		<path d="M1695.8,799.7c-0.3-2.5-1.2-4.8-2.5-6.8c-2-2.7-5-4.1-9.1-4.1c-5.9,0-9.9,2.9-12,8.8c-1.1,3.1-1.7,7.3-1.7,12.4
			c0,4.9,0.6,8.9,1.7,11.9c2.1,5.6,6,8.4,11.7,8.4c4.1,0,7-1.1,8.7-3.3c1.7-2.2,2.7-5.1,3.1-8.6h17.8c-0.4,5.3-2.3,10.4-5.7,15.1
			c-5.5,7.7-12.9,11.5-22.4,11.5l-3.9,5.7c1.3-0.3,2.3-0.5,2.9-0.6c0.6-0.1,1.2-0.2,1.8-0.2c3.3,0,5.9,0.8,7.9,2.4
			c2,1.6,2.9,4,2.9,7c0,3.8-1.5,6.8-4.6,9s-7,3.3-11.8,3.3c-2.1,0-4.6-0.4-7.5-1.3c-1.3-0.4-3.2-1.1-5.7-2l2.3-5.3
			c2.3,0.7,3.9,1.1,4.8,1.4c2,0.5,3.5,0.7,4.8,0.7c2.4,0,4.2-0.5,5.3-1.6s1.6-2.2,1.6-3.3c0-1.7-0.6-3-1.8-3.7
			c-1.2-0.7-2.4-1.1-3.8-1.1c-0.8,0-1.6,0.1-2.4,0.3s-1.7,0.4-2.7,0.8l-2.6-2.5l6-9.2c-7.7,0-14-3.2-19.1-9.6
			c-5.1-6.4-7.6-14.7-7.6-24.9c0-11.5,2.8-20.5,8.4-26.9c5.6-6.4,13.3-9.6,23.1-9.6c8.4,0,15.2,1.9,20.5,5.7
			c5.3,3.8,8.5,10.4,9.4,20h-17.8V799.7z"/>
		<path d="M1771.8,801.9c3.2-0.4,5.6-0.9,7-1.5c2.5-1.1,3.8-2.7,3.8-5c0-2.7-1-4.6-2.9-5.7c-1.9-1-4.7-1.6-8.4-1.6
			c-4.2,0-7.1,1-8.9,3.1c-1.2,1.5-2.1,3.6-2.5,6.2h-16.8c0.4-5.9,2-10.7,4.9-14.5c4.6-5.9,12.6-8.9,23.8-8.9
			c7.3,0,13.8,1.5,19.5,4.4c5.7,2.9,8.5,8.4,8.5,16.5v30.8c0,2.1,0,4.7,0.1,7.8c0.1,2.3,0.5,3.9,1,4.7c0.6,0.8,1.4,1.5,2.6,2v2.6
			h-18.9c-0.5-1.4-0.9-2.6-1.1-3.8c-0.2-1.2-0.4-2.5-0.5-4.1c-2.4,2.6-5.2,4.9-8.4,6.7c-3.8,2.2-8,3.3-12.8,3.3
			c-6.1,0-11.1-1.7-15-5.2c-4-3.5-5.9-8.4-5.9-14.7c0-8.3,3.2-14.2,9.5-17.9c3.5-2,8.6-3.4,15.4-4.3L1771.8,801.9z M1782.4,810.1
			c-1.1,0.7-2.2,1.3-3.4,1.7c-1.1,0.4-2.7,0.8-4.7,1.2l-4,0.7c-3.7,0.7-6.4,1.5-8,2.4c-2.7,1.6-4.1,4.1-4.1,7.4c0,3,0.8,5.2,2.5,6.5
			c1.7,1.3,3.7,2,6.1,2c3.8,0,7.3-1.1,10.5-3.3c3.2-2.2,4.9-6.3,5-12.1L1782.4,810.1L1782.4,810.1z"/>
		<path d="M1155.1,909.4c3.1,1.8,5.7,4.3,7.6,7.4v-32h17.6v90.6h-16.9v-9.3c-2.5,4-5.3,6.9-8.5,8.7s-7.1,2.7-11.8,2.7
			c-7.8,0-14.3-3.2-19.6-9.5s-8-14.5-8-24.4c0-11.5,2.6-20.5,7.8-27c5.2-6.6,12.2-9.9,21-9.9
			C1148.4,906.7,1151.9,907.6,1155.1,909.4z M1159.3,957.2c2.6-3.7,3.8-8.5,3.8-14.3c0-8.2-2.1-14.1-6.2-17.6
			c-2.5-2.1-5.5-3.2-8.8-3.2c-5.1,0-8.8,1.9-11.2,5.8c-2.4,3.9-3.6,8.7-3.6,14.4c0,6.2,1.2,11.2,3.6,14.9s6.1,5.6,11,5.6
			C1153,962.8,1156.8,960.9,1159.3,957.2z"/>
		<path d="M1271.5,967.2c-5.6,7-14.1,10.5-25.6,10.5c-11.4,0-20-3.5-25.6-10.5c-5.6-7-8.4-15.4-8.4-25.3c0-9.7,2.8-18.1,8.4-25.2
			c5.6-7.1,14.1-10.6,25.6-10.6c11.4,0,20,3.5,25.6,10.6s8.4,15.5,8.4,25.2C1280,951.8,1277.2,960.3,1271.5,967.2z M1257.6,957.5
			c2.7-3.6,4.1-8.8,4.1-15.6c0-6.7-1.4-11.9-4.1-15.5c-2.7-3.6-6.6-5.4-11.7-5.4s-9,1.8-11.8,5.4c-2.7,3.6-4.1,8.8-4.1,15.5
			s1.4,11.9,4.1,15.6c2.7,3.7,6.7,5.5,11.8,5.5S1254.9,961.2,1257.6,957.5z"/>
		<path d="M1376.9,894.2c7.2-7.5,16.5-11.2,27.7-11.2c15,0,25.9,5,32.9,15c3.8,5.6,5.9,11.3,6.2,16.9h-18.8
			c-1.2-4.4-2.7-7.6-4.6-9.9c-3.3-3.9-8.3-5.9-14.9-5.9c-6.7,0-12,2.8-15.9,8.3c-3.9,5.6-5.8,13.4-5.8,23.6c0,10.2,2,17.8,6.1,22.9
			c4.1,5.1,9.3,7.6,15.6,7.6c6.5,0,11.4-2.2,14.8-6.5c1.9-2.3,3.4-5.8,4.7-10.5h18.6c-1.6,9.9-5.7,17.9-12.4,24.1
			c-6.6,6.2-15.1,9.3-25.5,9.3c-12.8,0-22.9-4.2-30.2-12.6c-7.3-8.4-11-19.9-11-34.6C1364.4,915,1368.6,902.8,1376.9,894.2z"/>
		<path d="M1520.5,909.7c4.6,2.1,8.5,5.4,11.5,9.9c2.7,4,4.5,8.6,5.3,13.9c0.5,3.1,0.7,7.5,0.6,13.3h-48.5c0.3,6.7,2.6,11.5,7,14.2
			c2.7,1.7,5.9,2.5,9.6,2.5c4,0,7.2-1,9.7-3.1c1.4-1.1,2.5-2.6,3.6-4.6h17.8c-0.5,4-2.6,8-6.5,12.1c-6,6.5-14.3,9.8-25,9.8
			c-8.9,0-16.7-2.8-23.4-8.3c-6.8-5.5-10.2-14.5-10.2-26.9c0-11.6,3.1-20.5,9.2-26.7c6.1-6.2,14-9.3,23.8-9.3
			C1510.6,906.6,1515.9,907.6,1520.5,909.7z M1494.5,924.9c-2.5,2.6-4,6-4.6,10.4h30c-0.3-4.7-1.9-8.2-4.6-10.6
			c-2.8-2.4-6.2-3.6-10.3-3.6C1500.4,921,1496.9,922.3,1494.5,924.9z"/>
		<path d="M1592.9,934.6c3.2-0.4,5.6-0.9,7-1.5c2.5-1.1,3.8-2.7,3.8-5c0-2.7-1-4.6-2.9-5.7c-1.9-1-4.7-1.6-8.4-1.6
			c-4.2,0-7.1,1-8.9,3.1c-1.2,1.5-2.1,3.6-2.5,6.2h-16.8c0.4-5.9,2-10.7,4.9-14.5c4.6-5.9,12.6-8.9,23.8-8.9
			c7.3,0,13.8,1.5,19.5,4.4c5.7,2.9,8.5,8.4,8.5,16.5v30.8c0,2.1,0,4.7,0.1,7.8c0.1,2.3,0.5,3.9,1,4.7c0.6,0.8,1.4,1.5,2.6,2v2.6
			h-18.9c-0.5-1.4-0.9-2.6-1.1-3.8s-0.4-2.5-0.5-4.1c-2.4,2.6-5.2,4.9-8.4,6.7c-3.8,2.2-8,3.3-12.8,3.3c-6.1,0-11.1-1.7-15-5.2
			c-4-3.5-5.9-8.4-5.9-14.7c0-8.3,3.2-14.2,9.5-17.9c3.5-2,8.6-3.4,15.4-4.3L1592.9,934.6z M1603.6,942.8c-1.1,0.7-2.2,1.3-3.4,1.7
			c-1.1,0.4-2.7,0.8-4.7,1.2l-4,0.7c-3.7,0.7-6.4,1.5-8,2.4c-2.7,1.6-4.1,4.1-4.1,7.4c0,3,0.8,5.2,2.5,6.5c1.7,1.3,3.7,2,6.1,2
			c3.8,0,7.3-1.1,10.5-3.3c3.2-2.2,4.9-6.3,5-12.1L1603.6,942.8L1603.6,942.8z"/>
		<path d="M1693,906.8c0.2,0,0.7,0.1,1.5,0.1v18c-1.1-0.1-2.1-0.2-2.9-0.2c-0.9,0-1.5-0.1-2.1-0.1c-7,0-11.7,2.3-14.1,6.9
			c-1.3,2.6-2,6.6-2,11.9v32.1h-17.5v-67.1h16.6V920c2.7-4.5,5-7.5,7-9.2c3.3-2.7,7.5-4.1,12.7-4.1
			C1692.5,906.7,1692.7,906.8,1693,906.8z"/>
		<path d="M1750.9,934.6c3.2-0.4,5.6-0.9,7-1.5c2.5-1.1,3.8-2.7,3.8-5c0-2.7-1-4.6-2.9-5.7c-1.9-1-4.7-1.6-8.4-1.6
			c-4.2,0-7.1,1-8.9,3.1c-1.2,1.5-2.1,3.6-2.5,6.2h-16.8c0.4-5.9,2-10.7,4.9-14.5c4.6-5.9,12.6-8.9,23.8-8.9
			c7.3,0,13.8,1.5,19.5,4.4c5.7,2.9,8.5,8.4,8.5,16.5v30.8c0,2.1,0,4.7,0.1,7.8c0.1,2.3,0.5,3.9,1,4.7c0.6,0.8,1.4,1.5,2.6,2v2.6
			h-18.9c-0.5-1.4-0.9-2.6-1.1-3.8s-0.4-2.5-0.5-4.1c-2.4,2.6-5.2,4.9-8.4,6.7c-3.8,2.2-8,3.3-12.8,3.3c-6.1,0-11.1-1.7-15-5.2
			c-4-3.5-5.9-8.4-5.9-14.7c0-8.3,3.2-14.2,9.5-17.9c3.5-2,8.6-3.4,15.4-4.3L1750.9,934.6z M1761.6,942.8c-1.1,0.7-2.2,1.3-3.4,1.7
			c-1.1,0.4-2.7,0.8-4.7,1.2l-4,0.7c-3.7,0.7-6.4,1.5-8,2.4c-2.7,1.6-4.1,4.1-4.1,7.4c0,3,0.8,5.2,2.5,6.5c1.7,1.3,3.7,2,6.1,2
			c3.8,0,7.3-1.1,10.5-3.3c3.2-2.2,4.9-6.3,5-12.1L1761.6,942.8L1761.6,942.8z M1772.4,880.9l-18.6,18.4h-12.6l11.7-18.4H1772.4z"/>
	</g>
</g>
<path class="st1" d="M525.8,209.9c13.1,18.3,19.8,40.4,19.8,66.1c0,26.5-6.7,47.6-19.8,63.8c-7.5,9-18.3,17.2-32.6,24.7
	c21.9,8,38.3,20.8,49.6,38c11.1,17.5,16.7,38.6,16.7,63.2c0,25.7-6.4,48.6-19,68.9c-8,13.4-18.3,24.9-30.3,33.9
	c-13.6,10.5-29.8,17.7-48.3,21.6c-18.5,3.9-38.8,5.9-60.7,5.9H208V163.6h207.2C467.1,164.6,504.2,179.8,525.8,209.9z M293.1,238.7
	V334h104.1c18.5,0,33.7-3.6,45.2-10.8c11.6-7.2,17.5-19.8,17.5-38c0-20.1-7.7-33.4-23.1-39.8c-13.4-4.4-30.1-6.7-50.6-6.7
	C386.2,238.7,293.1,238.7,293.1,238.7z M293.1,405.5v115.4h104.1c18.5,0,33.2-2.6,43.4-7.7c18.8-9.3,28.3-27.3,28.3-54
	c0-22.4-9-38-27.3-46.3c-10.3-4.6-24.4-7.2-42.9-7.5H293.1z"/>
</svg>
