<?xml version="1.0" encoding="utf-8"?>
<!-- Generator: Adobe Illustrator 26.3.1, SVG Export Plug-In . SVG Version: 6.00 Build 0)  -->
<svg version="1.1" id="Layer_1" xmlns="http://www.w3.org/2000/svg" xmlns:xlink="http://www.w3.org/1999/xlink" x="0px" y="0px"
	 viewBox="0 0 962 765" style="enable-background:new 0 0 962 765;" xml:space="preserve">
<style type="text/css">
	.st0{fill:#FFFFFF;}
</style>
<g>
	<g>
		<path d="M852.8,412H109.2c-29.8,0-54-24.2-54-54v0c0-29.8,24.2-54,54-54h743.6c29.8,0,54,24.2,54,54v0
			C906.8,387.9,882.6,412,852.8,412z"/>
		<g>
			<path class="st0" d="M139.2,388.9h-13V326h13V388.9z"/>
			<path class="st0" d="M200.6,345c3,2.5,4.5,6.7,4.5,12.5v31.3h-12.4v-28.3c0-2.4-0.3-4.3-1-5.6c-1.2-2.4-3.4-3.6-6.7-3.6
				c-4.1,0-6.8,1.7-8.4,5.2c-0.8,1.8-1.2,4.2-1.2,7.1v25.2h-12.1v-46.4h11.7v6.8c1.5-2.4,3-4.1,4.4-5.2c2.5-1.9,5.6-2.8,9.4-2.8
				C193.7,341.3,197.6,342.5,200.6,345z"/>
			<path class="st0" d="M224.7,351.5v-8.7h6.4v-13H243v13h7.5v8.7H243V376c0,1.9,0.2,3.1,0.7,3.6c0.5,0.5,1.9,0.7,4.4,0.7
				c0.4,0,0.8,0,1.2,0c0.4,0,0.8,0,1.2-0.1v9.1l-5.7,0.2c-5.7,0.2-9.6-0.8-11.7-3c-1.4-1.4-2-3.5-2-6.4v-28.6H224.7z"/>
			<path class="st0" d="M301.3,343.3c3.2,1.5,5.9,3.7,8,6.9c1.9,2.8,3.1,6,3.7,9.6c0.3,2.1,0.5,5.2,0.4,9.2h-33.6
				c0.2,4.7,1.8,7.9,4.8,9.8c1.8,1.2,4.1,1.7,6.7,1.7c2.7,0,5-0.7,6.7-2.1c0.9-0.8,1.8-1.8,2.5-3.2h12.3c-0.3,2.8-1.8,5.6-4.5,8.4
				c-4.1,4.5-9.9,6.8-17.4,6.8c-6.1,0-11.6-1.9-16.2-5.7s-7-10-7-18.6c0-8.1,2.1-14.2,6.4-18.5c4.2-4.3,9.7-6.4,16.5-6.4
				C294.5,341.1,298.1,341.9,301.3,343.3z M283.3,353.8c-1.7,1.8-2.8,4.2-3.2,7.2h20.8c-0.2-3.2-1.3-5.7-3.2-7.3
				c-1.9-1.7-4.3-2.5-7.2-2.5C287.4,351.2,285,352,283.3,353.8z"/>
			<path class="st0" d="M358.1,341.3c0.2,0,0.5,0,1,0.1v12.5c-0.8-0.1-1.4-0.1-2-0.2c-0.6,0-1.1,0-1.4,0c-4.9,0-8.1,1.6-9.8,4.8
				c-0.9,1.8-1.4,4.6-1.4,8.3v22.2h-12.1v-46.5h11.5v8.1c1.9-3.1,3.5-5.2,4.9-6.4c2.3-1.9,5.2-2.9,8.8-2.9
				C357.7,341.3,357.9,341.3,358.1,341.3z"/>
			<path class="st0" d="M416.4,345c3,2.5,4.5,6.7,4.5,12.5v31.3h-12.4v-28.3c0-2.4-0.3-4.3-1-5.6c-1.2-2.4-3.4-3.6-6.7-3.6
				c-4.1,0-6.8,1.7-8.4,5.2c-0.8,1.8-1.2,4.2-1.2,7.1v25.2h-12.1v-46.4H391v6.8c1.5-2.4,3-4.1,4.4-5.2c2.5-1.9,5.6-2.8,9.4-2.8
				C409.5,341.3,413.4,342.5,416.4,345z"/>
			<path class="st0" d="M463.4,360.6c2.2-0.3,3.9-0.6,4.8-1.1c1.7-0.7,2.6-1.9,2.6-3.5c0-1.9-0.7-3.2-2-3.9
				c-1.3-0.7-3.3-1.1-5.9-1.1c-2.9,0-4.9,0.7-6.1,2.1c-0.9,1.1-1.4,2.5-1.7,4.3h-11.6c0.3-4.1,1.4-7.4,3.4-10
				c3.2-4.1,8.7-6.1,16.5-6.1c5.1,0,9.6,1,13.5,3c3.9,2,5.9,5.8,5.9,11.4v21.3c0,1.5,0,3.3,0.1,5.4c0.1,1.6,0.3,2.7,0.7,3.2
				c0.4,0.6,1,1,1.8,1.4v1.8h-13.1c-0.4-0.9-0.6-1.8-0.8-2.6c-0.1-0.8-0.3-1.8-0.3-2.8c-1.7,1.8-3.6,3.4-5.8,4.7
				c-2.6,1.5-5.6,2.3-8.9,2.3c-4.2,0-7.7-1.2-10.4-3.6c-2.7-2.4-4.1-5.8-4.1-10.2c0-5.7,2.2-9.9,6.6-12.4c2.4-1.4,6-2.4,10.7-3
				L463.4,360.6z M470.8,366.3c-0.8,0.5-1.6,0.9-2.3,1.2c-0.8,0.3-1.9,0.6-3.2,0.8l-2.7,0.5c-2.6,0.5-4.4,1-5.5,1.7
				c-1.9,1.1-2.8,2.8-2.8,5.2c0,2.1,0.6,3.6,1.7,4.5c1.2,0.9,2.6,1.4,4.2,1.4c2.6,0,5.1-0.8,7.3-2.3c2.2-1.5,3.4-4.3,3.5-8.4V366.3z
				"/>
			<path class="st0" d="M533.9,359.1c-0.2-1.7-0.8-3.3-1.7-4.7c-1.4-1.9-3.5-2.8-6.3-2.8c-4.1,0-6.9,2-8.4,6.1
				c-0.8,2.2-1.2,5-1.2,8.6c0,3.4,0.4,6.1,1.2,8.2c1.4,3.9,4.2,5.8,8.1,5.8c2.8,0,4.8-0.8,6-2.3c1.2-1.5,1.9-3.5,2.2-6h12.3
				c-0.3,3.7-1.6,7.2-4,10.5c-3.8,5.3-9.4,8-16.8,8c-7.4,0-12.9-2.2-16.4-6.7s-5.3-10.2-5.3-17.3c0-8,1.9-14.2,5.8-18.6
				s9.2-6.7,16-6.7c5.8,0,10.5,1.3,14.2,3.9c3.7,2.6,5.9,7.2,6.5,13.9H533.9z"/>
			<path class="st0" d="M580,336.8h-12.2v-11.2H580V336.8z M567.7,342.4H580v46.5h-12.2V342.4z"/>
			<path class="st0" d="M643.1,383.2c-3.9,4.8-9.8,7.3-17.7,7.3c-7.9,0-13.8-2.4-17.7-7.3c-3.9-4.8-5.8-10.7-5.8-17.5
				c0-6.7,1.9-12.5,5.8-17.4c3.9-4.9,9.8-7.4,17.7-7.4c7.9,0,13.8,2.5,17.7,7.4c3.9,4.9,5.8,10.7,5.8,17.4
				C648.9,372.5,647,378.4,643.1,383.2z M633.5,376.5c1.9-2.5,2.8-6.1,2.8-10.8c0-4.7-0.9-8.2-2.8-10.8c-1.9-2.5-4.6-3.8-8.1-3.8
				c-3.5,0-6.2,1.3-8.1,3.8s-2.9,6.1-2.9,10.8c0,4.7,1,8.3,2.9,10.8s4.6,3.8,8.1,3.8C628.9,380.3,631.6,379,633.5,376.5z"/>
			<path class="st0" d="M707.8,345c3,2.5,4.5,6.7,4.5,12.5v31.3H700v-28.3c0-2.4-0.3-4.3-1-5.6c-1.2-2.4-3.4-3.6-6.7-3.6
				c-4.1,0-6.8,1.7-8.4,5.2c-0.8,1.8-1.2,4.2-1.2,7.1v25.2h-12.1v-46.4h11.7v6.8c1.5-2.4,3-4.1,4.4-5.2c2.5-1.9,5.6-2.8,9.4-2.8
				C700.9,341.3,704.8,342.5,707.8,345z"/>
			<path class="st0" d="M754.8,360.6c2.2-0.3,3.9-0.6,4.8-1.1c1.7-0.7,2.6-1.9,2.6-3.5c0-1.9-0.7-3.2-2-3.9
				c-1.3-0.7-3.3-1.1-5.9-1.1c-2.9,0-4.9,0.7-6.1,2.1c-0.9,1.1-1.4,2.5-1.7,4.3h-11.6c0.3-4.1,1.4-7.4,3.4-10
				c3.2-4.1,8.7-6.1,16.5-6.1c5.1,0,9.6,1,13.5,3c3.9,2,5.9,5.8,5.9,11.4v21.3c0,1.5,0,3.3,0.1,5.4c0.1,1.6,0.3,2.7,0.7,3.2
				c0.4,0.6,1,1,1.8,1.4v1.8h-13.1c-0.4-0.9-0.6-1.8-0.8-2.6c-0.1-0.8-0.3-1.8-0.3-2.8c-1.7,1.8-3.6,3.4-5.8,4.7
				c-2.6,1.5-5.6,2.3-8.9,2.3c-4.2,0-7.7-1.2-10.4-3.6c-2.7-2.4-4.1-5.8-4.1-10.2c0-5.7,2.2-9.9,6.6-12.4c2.4-1.4,6-2.4,10.7-3
				L754.8,360.6z M762.2,366.3c-0.8,0.5-1.6,0.9-2.3,1.2c-0.8,0.3-1.9,0.6-3.2,0.8l-2.7,0.5c-2.6,0.5-4.4,1-5.5,1.7
				c-1.9,1.1-2.8,2.8-2.8,5.2c0,2.1,0.6,3.6,1.7,4.5c1.2,0.9,2.6,1.4,4.2,1.4c2.6,0,5.1-0.8,7.3-2.3c2.2-1.5,3.4-4.3,3.5-8.4V366.3z
				"/>
			<path class="st0" d="M810,388.9H798V326H810V388.9z"/>
		</g>
	</g>
	<g>
		<path d="M245.5,110c5.1,7.1,7.7,15.7,7.7,25.7c0,10.3-2.6,18.5-7.7,24.8c-2.9,3.5-7.1,6.7-12.7,9.6c8.5,3.1,14.9,8.1,19.3,14.8
			c4.3,6.8,6.5,15,6.5,24.6c0,10-2.5,18.9-7.4,26.8c-3.1,5.2-7.1,9.7-11.8,13.2c-5.3,4.1-11.6,6.9-18.8,8.4
			c-7.2,1.5-15.1,2.3-23.6,2.3h-75.1V92h80.6C222.7,92.4,237.1,98.3,245.5,110z M155,121.2v37.1h40.5c7.2,0,13.1-1.4,17.6-4.2
			c4.5-2.8,6.8-7.7,6.8-14.8c0-7.8-3-13-9-15.5c-5.2-1.7-11.7-2.6-19.7-2.6H155z M155,186.1V231h40.5c7.2,0,12.9-1,16.9-3
			c7.3-3.6,11-10.6,11-21c0-8.7-3.5-14.8-10.6-18c-4-1.8-9.5-2.8-16.7-2.9H155z"/>
		<path d="M330.6,121h-32.7V91h32.7V121z M297.9,135.8h32.7v124.3h-32.7V135.8z"/>
		<path d="M453.7,138.4c8.6,3.9,15.7,10,21.3,18.4c5,7.4,8.3,16,9.8,25.7c0.9,5.7,1.2,13.9,1.1,24.7h-89.8
			c0.5,12.5,4.8,21.2,12.9,26.2c4.9,3.1,10.8,4.7,17.8,4.7c7.3,0,13.3-1.9,17.9-5.7c2.5-2.1,4.7-4.9,6.6-8.6h32.9
			c-0.9,7.4-4.9,14.9-12,22.5c-11,12.1-26.5,18.1-46.4,18.1c-16.4,0-30.9-5.1-43.4-15.3c-12.5-10.2-18.8-26.8-18.8-49.8
			c0-21.5,5.7-38,17-49.5c11.3-11.5,26-17.2,44.1-17.2C435.5,132.5,445.1,134.5,453.7,138.4z M405.5,166.4
			c-4.6,4.7-7.4,11.1-8.6,19.2h55.5c-0.6-8.6-3.4-15.2-8.6-19.6c-5.1-4.5-11.5-6.7-19.1-6.7C416.5,159.3,410.1,161.7,405.5,166.4z"
			/>
		<path d="M613.2,143c8.1,6.7,12.1,17.9,12.1,33.5v83.7h-33v-75.6c0-6.5-0.9-11.6-2.6-15.1c-3.1-6.4-9.1-9.6-18-9.6
			c-10.9,0-18.3,4.7-22.3,14c-2.1,4.9-3.1,11.3-3.1,18.9v67.3h-32.2V136.1h31.2v18.1c4.1-6.4,8-11,11.7-13.8c6.6-5,15-7.5,25.1-7.5
			C594.8,132.9,605.2,136.2,613.2,143z"/>
		<path d="M715.8,184.5c6-0.8,10.3-1.7,12.9-2.9c4.6-2,7-5.1,7-9.2c0-5.1-1.8-8.6-5.3-10.6c-3.6-1.9-8.8-2.9-15.7-2.9
			c-7.7,0-13.2,1.9-16.4,5.7c-2.3,2.8-3.8,6.6-4.6,11.4h-31.1c0.7-10.9,3.7-19.8,9.1-26.8c8.6-10.9,23.3-16.4,44.1-16.4
			c13.6,0,25.6,2.7,36.1,8.1c10.5,5.4,15.8,15.6,15.8,30.6v57c0,4,0.1,8.7,0.2,14.4c0.2,4.3,0.9,7.1,1.9,8.7
			c1.1,1.5,2.6,2.8,4.8,3.8v4.8h-35.1c-1-2.5-1.7-4.9-2-7.1c-0.4-2.2-0.7-4.7-0.9-7.5c-4.5,4.9-9.6,9-15.5,12.4c-7,4-14.9,6-23.7,6
			c-11.2,0-20.5-3.2-27.8-9.6c-7.3-6.4-11-15.5-11-27.3c0-15.3,5.9-26.3,17.7-33.2c6.5-3.7,16-6.4,28.5-8L715.8,184.5z M735.5,199.7
			c-2.1,1.3-4.1,2.3-6.3,3.1c-2.1,0.8-5,1.5-8.7,2.2l-7.3,1.4c-6.9,1.2-11.8,2.7-14.8,4.4c-5.1,3-7.6,7.6-7.6,13.8
			c0,5.6,1.5,9.6,4.7,12c3.1,2.5,6.9,3.7,11.3,3.7c7,0,13.5-2.1,19.5-6.2c5.9-4.1,9-11.6,9.2-22.5V199.7z"/>
		<path d="M840.3,260.2H808V92h32.2V260.2z"/>
	</g>
	<g>
		<path d="M176.6,472.7c3.1,1.8,5.7,4.3,7.6,7.4v-32h17.6v90.6h-16.9v-9.3c-2.5,4-5.3,6.9-8.5,8.7c-3.2,1.8-7.1,2.7-11.8,2.7
			c-7.8,0-14.3-3.2-19.6-9.5c-5.3-6.3-8-14.5-8-24.4c0-11.5,2.6-20.5,7.8-27c5.2-6.6,12.2-9.9,21-9.9
			C169.9,470,173.4,470.9,176.6,472.7z M180.8,520.5c2.6-3.7,3.8-8.5,3.8-14.3c0-8.2-2.1-14.1-6.2-17.6c-2.5-2.1-5.5-3.2-8.8-3.2
			c-5.1,0-8.8,1.9-11.2,5.8c-2.4,3.9-3.6,8.7-3.6,14.4c0,6.2,1.2,11.2,3.6,14.9c2.4,3.7,6.1,5.6,11,5.6
			C174.5,526,178.3,524.2,180.8,520.5z"/>
		<path d="M280.9,473c4.6,2.1,8.5,5.4,11.5,9.9c2.7,4,4.5,8.6,5.3,13.9c0.5,3.1,0.7,7.5,0.6,13.3h-48.5c0.3,6.7,2.6,11.5,7,14.2
			c2.7,1.7,5.9,2.5,9.6,2.5c4,0,7.2-1,9.7-3.1c1.4-1.1,2.5-2.6,3.6-4.6h17.8c-0.5,4-2.6,8-6.5,12.1c-6,6.5-14.3,9.8-25,9.8
			c-8.9,0-16.7-2.8-23.4-8.3s-10.2-14.5-10.2-26.9c0-11.6,3.1-20.5,9.2-26.7c6.1-6.2,14-9.3,23.8-9.3
			C271.1,469.8,276.3,470.9,280.9,473z M254.9,488.1c-2.5,2.6-4,6-4.6,10.4h30c-0.3-4.7-1.9-8.2-4.6-10.6c-2.8-2.4-6.2-3.6-10.3-3.6
			C260.8,484.3,257.3,485.6,254.9,488.1z"/>
		<path d="M435.7,449.9c6.3,2.1,11.4,5.9,15.3,11.5c3.1,4.5,5.3,9.4,6.4,14.7c1.1,5.3,1.7,10.3,1.7,15c0,12.1-2.4,22.3-7.2,30.7
			c-6.5,11.3-16.6,16.9-30.2,16.9H383V448h38.8C427.4,448,432,448.7,435.7,449.9z M401.3,463.7V523h17.4c8.9,0,15.1-4.4,18.6-13.2
			c1.9-4.8,2.9-10.6,2.9-17.3c0-9.2-1.4-16.3-4.3-21.3c-2.9-4.9-8.6-7.4-17.2-7.4H401.3z"/>
		<path d="M518.2,497.9c3.2-0.4,5.6-0.9,7-1.5c2.5-1.1,3.8-2.7,3.8-5c0-2.7-1-4.6-2.9-5.7c-1.9-1-4.7-1.6-8.4-1.6
			c-4.2,0-7.1,1-8.9,3.1c-1.2,1.5-2.1,3.6-2.5,6.2h-16.8c0.4-5.9,2-10.7,4.9-14.5c4.6-5.9,12.6-8.9,23.8-8.9
			c7.3,0,13.8,1.5,19.5,4.4c5.7,2.9,8.5,8.4,8.5,16.5v30.8c0,2.1,0,4.7,0.1,7.8c0.1,2.3,0.5,3.9,1,4.7c0.6,0.8,1.4,1.5,2.6,2v2.6
			h-18.9c-0.5-1.4-0.9-2.6-1.1-3.8c-0.2-1.2-0.4-2.5-0.5-4.1c-2.4,2.6-5.2,4.9-8.4,6.7c-3.8,2.2-8,3.3-12.8,3.3
			c-6.1,0-11.1-1.7-15-5.2c-4-3.5-5.9-8.4-5.9-14.7c0-8.3,3.2-14.2,9.5-17.9c3.5-2,8.6-3.4,15.4-4.3L518.2,497.9z M528.8,506.1
			c-1.1,0.7-2.2,1.3-3.4,1.7c-1.1,0.4-2.7,0.8-4.7,1.2l-4,0.7c-3.7,0.7-6.4,1.5-8,2.4c-2.7,1.6-4.1,4.1-4.1,7.4c0,3,0.8,5.2,2.5,6.5
			c1.7,1.3,3.7,2,6.1,2c3.8,0,7.3-1.1,10.5-3.3c3.2-2.2,4.9-6.3,5-12.1V506.1z"/>
		<path d="M634.9,475.5c4.4,3.6,6.5,9.7,6.5,18.1v45.2h-17.8v-40.8c0-3.5-0.5-6.2-1.4-8.1c-1.7-3.4-4.9-5.2-9.7-5.2
			c-5.9,0-9.9,2.5-12.1,7.6c-1.1,2.7-1.7,6.1-1.7,10.2v36.3h-17.4v-67h16.9v9.8c2.2-3.4,4.3-5.9,6.3-7.4c3.6-2.7,8.1-4.1,13.6-4.1
			C624.9,470,630.5,471.8,634.9,475.5z"/>
		<path d="M717.3,495.7c-0.3-2.5-1.2-4.8-2.5-6.8c-2-2.7-5-4.1-9.1-4.1c-5.9,0-9.9,2.9-12,8.8c-1.1,3.1-1.7,7.3-1.7,12.4
			c0,4.9,0.6,8.9,1.7,11.9c2.1,5.6,6,8.4,11.7,8.4c4.1,0,7-1.1,8.7-3.3c1.7-2.2,2.7-5.1,3.1-8.6H735c-0.4,5.3-2.3,10.4-5.7,15.1
			c-5.5,7.7-12.9,11.5-22.4,11.5l-3.9,5.7c1.3-0.3,2.3-0.5,2.9-0.6c0.6-0.1,1.2-0.2,1.8-0.2c3.3,0,5.9,0.8,7.9,2.4
			c2,1.6,2.9,4,2.9,7c0,3.8-1.5,6.8-4.6,9c-3.1,2.2-7,3.3-11.8,3.3c-2.1,0-4.6-0.4-7.5-1.3c-1.3-0.4-3.2-1.1-5.7-2l2.3-5.3
			c2.3,0.7,3.9,1.1,4.8,1.4c2,0.5,3.5,0.7,4.8,0.7c2.4,0,4.2-0.5,5.3-1.6c1.1-1.1,1.6-2.2,1.6-3.3c0-1.7-0.6-3-1.8-3.7
			c-1.2-0.7-2.4-1.1-3.8-1.1c-0.8,0-1.6,0.1-2.4,0.3c-0.8,0.2-1.7,0.4-2.7,0.8l-2.6-2.5l6-9.2c-7.7,0-14-3.2-19.1-9.6
			c-5.1-6.4-7.6-14.7-7.6-24.9c0-11.5,2.8-20.5,8.4-26.9c5.6-6.4,13.3-9.6,23.1-9.6c8.4,0,15.2,1.9,20.5,5.7
			c5.3,3.8,8.5,10.4,9.4,20H717.3z"/>
		<path d="M793.3,497.9c3.2-0.4,5.6-0.9,7-1.5c2.5-1.1,3.8-2.7,3.8-5c0-2.7-1-4.6-2.9-5.7c-1.9-1-4.7-1.6-8.4-1.6
			c-4.2,0-7.1,1-8.9,3.1c-1.2,1.5-2.1,3.6-2.5,6.2h-16.8c0.4-5.9,2-10.7,4.9-14.5c4.6-5.9,12.6-8.9,23.8-8.9
			c7.3,0,13.8,1.5,19.5,4.4c5.7,2.9,8.5,8.4,8.5,16.5v30.8c0,2.1,0,4.7,0.1,7.8c0.1,2.3,0.5,3.9,1,4.7c0.6,0.8,1.4,1.5,2.6,2v2.6
			h-18.9c-0.5-1.4-0.9-2.6-1.1-3.8c-0.2-1.2-0.4-2.5-0.5-4.1c-2.4,2.6-5.2,4.9-8.4,6.7c-3.8,2.2-8,3.3-12.8,3.3
			c-6.1,0-11.1-1.7-15-5.2c-4-3.5-5.9-8.4-5.9-14.7c0-8.3,3.2-14.2,9.5-17.9c3.5-2,8.6-3.4,15.4-4.3L793.3,497.9z M803.9,506.1
			c-1.1,0.7-2.2,1.3-3.4,1.7c-1.1,0.4-2.7,0.8-4.7,1.2l-4,0.7c-3.7,0.7-6.4,1.5-8,2.4c-2.7,1.6-4.1,4.1-4.1,7.4c0,3,0.8,5.2,2.5,6.5
			c1.7,1.3,3.7,2,6.1,2c3.8,0,7.3-1.1,10.5-3.3c3.2-2.2,4.9-6.3,5-12.1V506.1z"/>
		<path d="M176.6,605.4c3.1,1.8,5.7,4.3,7.6,7.4v-32h17.6v90.6h-16.9v-9.3c-2.5,4-5.3,6.9-8.5,8.7c-3.2,1.8-7.1,2.7-11.8,2.7
			c-7.8,0-14.3-3.2-19.6-9.5c-5.3-6.3-8-14.5-8-24.4c0-11.5,2.6-20.5,7.8-27c5.2-6.6,12.2-9.9,21-9.9
			C169.9,602.7,173.4,603.6,176.6,605.4z M180.8,653.2c2.6-3.7,3.8-8.5,3.8-14.3c0-8.2-2.1-14.1-6.2-17.6c-2.5-2.1-5.5-3.2-8.8-3.2
			c-5.1,0-8.8,1.9-11.2,5.8c-2.4,3.9-3.6,8.7-3.6,14.4c0,6.2,1.2,11.2,3.6,14.9c2.4,3.7,6.1,5.6,11,5.6
			C174.5,658.8,178.3,656.9,180.8,653.2z"/>
		<path d="M293,663.2c-5.6,7-14.1,10.5-25.6,10.5c-11.4,0-20-3.5-25.6-10.5c-5.6-7-8.4-15.4-8.4-25.3c0-9.7,2.8-18.1,8.4-25.2
			c5.6-7.1,14.1-10.6,25.6-10.6c11.4,0,20,3.5,25.6,10.6c5.6,7.1,8.4,15.5,8.4,25.2C301.5,647.8,298.7,656.3,293,663.2z
			 M279.1,653.5c2.7-3.6,4.1-8.8,4.1-15.6c0-6.7-1.4-11.9-4.1-15.5c-2.7-3.6-6.6-5.4-11.7-5.4c-5.1,0-9,1.8-11.8,5.4
			c-2.7,3.6-4.1,8.8-4.1,15.5c0,6.7,1.4,11.9,4.1,15.6s6.7,5.5,11.8,5.5C272.5,659,276.4,657.2,279.1,653.5z"/>
		<path d="M398.4,590.2c7.2-7.5,16.5-11.2,27.7-11.2c15,0,25.9,5,32.9,15c3.8,5.6,5.9,11.3,6.2,16.9h-18.8c-1.2-4.4-2.7-7.6-4.6-9.9
			c-3.3-3.9-8.3-5.9-14.9-5.9c-6.7,0-12,2.8-15.9,8.3c-3.9,5.6-5.8,13.4-5.8,23.6c0,10.2,2,17.8,6.1,22.9c4.1,5.1,9.3,7.6,15.6,7.6
			c6.5,0,11.4-2.2,14.8-6.5c1.9-2.3,3.4-5.8,4.7-10.5H465c-1.6,9.9-5.7,17.9-12.4,24.1c-6.6,6.2-15.1,9.3-25.5,9.3
			c-12.8,0-22.9-4.2-30.2-12.6c-7.3-8.4-11-19.9-11-34.6C385.9,611,390.1,598.8,398.4,590.2z"/>
		<path d="M542,605.7c4.6,2.1,8.5,5.4,11.5,9.9c2.7,4,4.5,8.6,5.3,13.9c0.5,3.1,0.7,7.5,0.6,13.3h-48.5c0.3,6.7,2.6,11.5,7,14.2
			c2.7,1.7,5.9,2.5,9.6,2.5c4,0,7.2-1,9.7-3.1c1.4-1.1,2.5-2.6,3.6-4.6h17.8c-0.5,4-2.6,8-6.5,12.1c-6,6.5-14.3,9.8-25,9.8
			c-8.9,0-16.7-2.8-23.4-8.3c-6.8-5.5-10.2-14.5-10.2-26.9c0-11.6,3.1-20.5,9.2-26.7c6.1-6.2,14-9.3,23.8-9.3
			C532.1,602.6,537.4,603.6,542,605.7z M516,620.9c-2.5,2.6-4,6-4.6,10.4h30c-0.3-4.7-1.9-8.2-4.6-10.6c-2.8-2.4-6.2-3.6-10.3-3.6
			C521.9,617,518.4,618.3,516,620.9z"/>
		<path d="M614.4,630.6c3.2-0.4,5.6-0.9,7-1.5c2.5-1.1,3.8-2.7,3.8-5c0-2.7-1-4.6-2.9-5.7c-1.9-1-4.7-1.6-8.4-1.6
			c-4.2,0-7.1,1-8.9,3.1c-1.2,1.5-2.1,3.6-2.5,6.2h-16.8c0.4-5.9,2-10.7,4.9-14.5c4.6-5.9,12.6-8.9,23.8-8.9
			c7.3,0,13.8,1.5,19.5,4.4c5.7,2.9,8.5,8.4,8.5,16.5v30.8c0,2.1,0,4.7,0.1,7.8c0.1,2.3,0.5,3.9,1,4.7c0.6,0.8,1.4,1.5,2.6,2v2.6
			h-18.9c-0.5-1.4-0.9-2.6-1.1-3.8c-0.2-1.2-0.4-2.5-0.5-4.1c-2.4,2.6-5.2,4.9-8.4,6.7c-3.8,2.2-8,3.3-12.8,3.3
			c-6.1,0-11.1-1.7-15-5.2c-4-3.5-5.9-8.4-5.9-14.7c0-8.3,3.2-14.2,9.5-17.9c3.5-2,8.6-3.4,15.4-4.3L614.4,630.6z M625.1,638.8
			c-1.1,0.7-2.2,1.3-3.4,1.7c-1.1,0.4-2.7,0.8-4.7,1.2l-4,0.7c-3.7,0.7-6.4,1.5-8,2.4c-2.7,1.6-4.1,4.1-4.1,7.4c0,3,0.8,5.2,2.5,6.5
			c1.7,1.3,3.7,2,6.1,2c3.8,0,7.3-1.1,10.5-3.3c3.2-2.2,4.9-6.3,5-12.1V638.8z"/>
		<path d="M714.5,602.8c0.2,0,0.7,0.1,1.5,0.1v18c-1.1-0.1-2.1-0.2-2.9-0.2c-0.9,0-1.5-0.1-2.1-0.1c-7,0-11.7,2.3-14.1,6.9
			c-1.3,2.6-2,6.6-2,11.9v32.1h-17.5v-67.1h16.6V616c2.7-4.5,5-7.5,7-9.2c3.3-2.7,7.5-4.1,12.7-4.1
			C714,602.7,714.2,602.8,714.5,602.8z"/>
		<path d="M772.4,630.6c3.2-0.4,5.6-0.9,7-1.5c2.5-1.1,3.8-2.7,3.8-5c0-2.7-1-4.6-2.9-5.7c-1.9-1-4.7-1.6-8.4-1.6
			c-4.2,0-7.1,1-8.9,3.1c-1.2,1.5-2.1,3.6-2.5,6.2h-16.8c0.4-5.9,2-10.7,4.9-14.5c4.6-5.9,12.6-8.9,23.8-8.9
			c7.3,0,13.8,1.5,19.5,4.4c5.7,2.9,8.5,8.4,8.5,16.5v30.8c0,2.1,0,4.7,0.1,7.8c0.1,2.3,0.5,3.9,1,4.7c0.6,0.8,1.4,1.5,2.6,2v2.6
			h-18.9c-0.5-1.4-0.9-2.6-1.1-3.8c-0.2-1.2-0.4-2.5-0.5-4.1c-2.4,2.6-5.2,4.9-8.4,6.7c-3.8,2.2-8,3.3-12.8,3.3
			c-6.1,0-11.1-1.7-15-5.2c-4-3.5-5.9-8.4-5.9-14.7c0-8.3,3.2-14.2,9.5-17.9c3.5-2,8.6-3.4,15.4-4.3L772.4,630.6z M783.1,638.8
			c-1.1,0.7-2.2,1.3-3.4,1.7c-1.1,0.4-2.7,0.8-4.7,1.2l-4,0.7c-3.7,0.7-6.4,1.5-8,2.4c-2.7,1.6-4.1,4.1-4.1,7.4c0,3,0.8,5.2,2.5,6.5
			c1.7,1.3,3.7,2,6.1,2c3.8,0,7.3-1.1,10.5-3.3c3.2-2.2,4.9-6.3,5-12.1V638.8z M793.9,576.9l-18.6,18.4h-12.6l11.7-18.4H793.9z"/>
	</g>
</g>
</svg>
